# xmcd CD database file
#
# Track frame offsets:
#	150
#	15042
#	39160
#	56802
#	74895
#
# Disc length: 1207 seconds
#
# Revision: 1
# Processed by: cddbd v1.4PL0 Copyright (c) Steve Scherf et al.
# Submitted via: CDex 1.40Release
#
DISCID=3a04b505
DTITLE=Gerald Collier - Low Tar Taste
DYEAR=1999
DGENRE=Country
TTITLE0=Understatement Of The Year
TTITLE1=Long Distance
TTITLE2=Losing Everything
TTITLE3=Still Your Fool
TTITLE4=A Tale To Tell
EXTD=YEAR: 1999 ID3G: 2
EXTT0=
EXTT1=
EXTT2=
EXTT3=
EXTT4=
PLAYORDER=
